<svg width="22" height="22" viewBox="0 0 22 22" fill="none" xmlns="http://www.w3.org/2000/svg">
<circle cx="11" cy="11" r="10.5" stroke="black"/>
<path d="M10.636 15.168C10.044 15.168 9.512 15.056 9.04 14.832C8.576 14.608 8.208 14.284 7.936 13.86C7.672 13.436 7.54 12.924 7.54 12.324V12.096H8.512V12.312C8.512 12.928 8.708 13.412 9.1 13.764C9.492 14.116 10.004 14.292 10.636 14.292C11.276 14.292 11.772 14.128 12.124 13.8C12.484 13.464 12.664 13.044 12.664 12.54V12.444C12.664 12.076 12.576 11.78 12.4 11.556C12.224 11.324 11.984 11.156 11.68 11.052C11.384 10.94 11.056 10.884 10.696 10.884H9.328V9.672L12.532 7.62V7.476H7.744V6.6H13.564V7.956L10.432 9.972V10.116H11.032C11.504 10.116 11.936 10.204 12.328 10.38C12.728 10.548 13.044 10.804 13.276 11.148C13.516 11.484 13.636 11.908 13.636 12.42V12.552C13.636 13.08 13.512 13.54 13.264 13.932C13.016 14.324 12.668 14.628 12.22 14.844C11.772 15.06 11.244 15.168 10.636 15.168Z" fill="black"/>
</svg>
