<svg width="22" height="22" viewBox="0 0 22 22" fill="none" xmlns="http://www.w3.org/2000/svg">
<circle cx="11" cy="11" r="10.5" stroke="black"/>
<path d="M7.636 15V14.124C7.636 13.524 7.74 13.044 7.948 12.684C8.164 12.324 8.46 12.036 8.836 11.82C9.22 11.596 9.676 11.404 10.204 11.244L10.864 11.04C11.224 10.928 11.54 10.792 11.812 10.632C12.084 10.464 12.296 10.256 12.448 10.008C12.6 9.752 12.676 9.44 12.676 9.072V9.024C12.676 8.496 12.492 8.08 12.124 7.776C11.756 7.464 11.284 7.308 10.708 7.308C10.1 7.308 9.604 7.472 9.22 7.8C8.836 8.12 8.644 8.608 8.644 9.264V9.432H7.684V9.276C7.684 8.668 7.816 8.152 8.08 7.728C8.344 7.304 8.704 6.984 9.16 6.768C9.616 6.544 10.132 6.432 10.708 6.432C11.284 6.432 11.792 6.54 12.232 6.756C12.68 6.972 13.028 7.272 13.276 7.656C13.524 8.04 13.648 8.488 13.648 9V9.108C13.648 9.652 13.54 10.104 13.324 10.464C13.108 10.816 12.808 11.104 12.424 11.328C12.048 11.552 11.604 11.744 11.092 11.904L10.444 12.108C10.036 12.236 9.696 12.372 9.424 12.516C9.16 12.652 8.96 12.828 8.824 13.044C8.688 13.26 8.62 13.552 8.62 13.92V14.124H13.576V15H7.636Z" fill="black"/>
</svg>
